<svg width="62" height="168" viewBox="0 0 62 168" fill="none" xmlns="http://www.w3.org/2000/svg">
<g filter="url(#filter0_f_17_349)">
<ellipse cx="2.99654" cy="2.99995" rx="2.99654" ry="2.99995" transform="matrix(-0.992529 0.12201 0.121729 0.992563 3.47444 1)" fill="url(#paint0_linear_17_349)"/>
</g>
<g filter="url(#filter1_f_17_349)">
<ellipse cx="2.99654" cy="2.99995" rx="2.99654" ry="2.99995" transform="matrix(-0.992529 0.12201 0.121729 0.992563 6.33282 9)" fill="url(#paint1_linear_17_349)"/>
</g>
<g filter="url(#filter2_f_17_349)">
<ellipse cx="2.99654" cy="2.99995" rx="2.99654" ry="2.99995" transform="matrix(-0.992529 0.12201 0.121729 0.992563 9.32933 17)" fill="url(#paint2_linear_17_349)"/>
</g>
<g filter="url(#filter3_f_17_349)">
<ellipse cx="2.99654" cy="2.99995" rx="2.99654" ry="2.99995" transform="matrix(-0.992529 0.12201 0.121729 0.992563 12.3258 25)" fill="url(#paint3_linear_17_349)"/>
<ellipse cx="2.99654" cy="2.99995" rx="2.99654" ry="2.99995" transform="matrix(-0.992529 0.12201 0.121729 0.992563 1.42059 26.3406)" fill="url(#paint4_linear_17_349)"/>
</g>
<g filter="url(#filter4_f_17_349)">
<ellipse cx="2.99654" cy="2.99995" rx="2.99654" ry="2.99995" transform="matrix(-0.992529 0.12201 0.121729 0.992563 15.3223 33)" fill="url(#paint5_linear_17_349)"/>
<ellipse cx="2.99654" cy="2.99995" rx="2.99654" ry="2.99995" transform="matrix(-0.992529 0.12201 0.121729 0.992563 4.41707 34.3406)" fill="url(#paint6_linear_17_349)"/>
</g>
<g filter="url(#filter5_f_17_349)">
<ellipse cx="2.99654" cy="2.99995" rx="2.99654" ry="2.99995" transform="matrix(-0.992529 0.12201 0.121729 0.992563 18.3188 41)" fill="url(#paint7_linear_17_349)"/>
<ellipse cx="2.99654" cy="2.99995" rx="2.99654" ry="2.99995" transform="matrix(-0.992529 0.12201 0.121729 0.992563 7.41356 42.3406)" fill="url(#paint8_linear_17_349)"/>
</g>
<g filter="url(#filter6_f_17_349)">
<ellipse cx="2.99654" cy="2.99995" rx="2.99654" ry="2.99995" transform="matrix(-0.992529 0.12201 0.121729 0.992563 21.3153 49)" fill="url(#paint9_linear_17_349)"/>
<ellipse cx="2.99654" cy="2.99995" rx="2.99654" ry="2.99995" transform="matrix(-0.992529 0.12201 0.121729 0.992563 10.41 50.3406)" fill="url(#paint10_linear_17_349)"/>
<ellipse cx="2.99654" cy="2.99995" rx="2.99654" ry="2.99995" transform="matrix(-0.992529 0.12201 0.121729 0.992563 -0.495178 51.6811)" fill="url(#paint11_linear_17_349)"/>
</g>
<g filter="url(#filter7_f_17_349)">
<ellipse cx="2.99654" cy="2.99995" rx="2.99654" ry="2.99995" transform="matrix(-0.992529 0.12201 0.121729 0.992563 24.3118 57)" fill="url(#paint12_linear_17_349)"/>
<ellipse cx="2.99654" cy="2.99995" rx="2.99654" ry="2.99995" transform="matrix(-0.992529 0.12201 0.121729 0.992563 13.4066 58.3406)" fill="url(#paint13_linear_17_349)"/>
<ellipse cx="2.99654" cy="2.99995" rx="2.99654" ry="2.99995" transform="matrix(-0.992529 0.12201 0.121729 0.992563 2.5013 59.6811)" fill="url(#paint14_linear_17_349)"/>
</g>
<g filter="url(#filter8_f_17_349)">
<ellipse cx="2.99654" cy="2.99995" rx="2.99654" ry="2.99995" transform="matrix(-0.992529 0.12201 0.121729 0.992563 27.3083 65)" fill="url(#paint15_linear_17_349)"/>
<ellipse cx="2.99654" cy="2.99995" rx="2.99654" ry="2.99995" transform="matrix(-0.992529 0.12201 0.121729 0.992563 16.403 66.3406)" fill="url(#paint16_linear_17_349)"/>
<ellipse cx="2.99654" cy="2.99995" rx="2.99654" ry="2.99995" transform="matrix(-0.992529 0.12201 0.121729 0.992563 5.49779 67.6811)" fill="url(#paint17_linear_17_349)"/>
</g>
<g filter="url(#filter9_f_17_349)">
<ellipse cx="2.99654" cy="2.99995" rx="2.99654" ry="2.99995" transform="matrix(-0.992529 0.12201 0.121729 0.992563 30.3047 73)" fill="url(#paint18_linear_17_349)"/>
<ellipse cx="2.99654" cy="2.99995" rx="2.99654" ry="2.99995" transform="matrix(-0.992529 0.12201 0.121729 0.992563 19.3995 74.3406)" fill="url(#paint19_linear_17_349)"/>
<ellipse cx="2.99654" cy="2.99995" rx="2.99654" ry="2.99995" transform="matrix(-0.992529 0.12201 0.121729 0.992563 8.49429 75.6811)" fill="url(#paint20_linear_17_349)"/>
</g>
<g filter="url(#filter10_f_17_349)">
<ellipse cx="2.99654" cy="2.99995" rx="2.99654" ry="2.99995" transform="matrix(-0.992529 0.12201 0.121729 0.992563 33.4393 81)" fill="url(#paint21_linear_17_349)"/>
<ellipse cx="2.99654" cy="2.99995" rx="2.99654" ry="2.99995" transform="matrix(-0.992529 0.12201 0.121729 0.992563 22.5341 82.3406)" fill="url(#paint22_linear_17_349)"/>
<ellipse cx="2.99654" cy="2.99995" rx="2.99654" ry="2.99995" transform="matrix(-0.992529 0.12201 0.121729 0.992563 11.6289 83.6811)" fill="url(#paint23_linear_17_349)"/>
<ellipse cx="2.99654" cy="2.99995" rx="2.99654" ry="2.99995" transform="matrix(-0.992529 0.12201 0.121729 0.992563 0.723663 85.0217)" fill="url(#paint24_linear_17_349)"/>
</g>
<g filter="url(#filter11_f_17_349)">
<ellipse cx="2.99654" cy="2.99995" rx="2.99654" ry="2.99995" transform="matrix(-0.992529 0.12201 0.121729 0.992563 36.2977 89)" fill="url(#paint25_linear_17_349)"/>
<ellipse cx="2.99654" cy="2.99995" rx="2.99654" ry="2.99995" transform="matrix(-0.992529 0.12201 0.121729 0.992563 25.3925 90.3406)" fill="url(#paint26_linear_17_349)"/>
<ellipse cx="2.99654" cy="2.99995" rx="2.99654" ry="2.99995" transform="matrix(-0.992529 0.12201 0.121729 0.992563 14.4873 91.6811)" fill="url(#paint27_linear_17_349)"/>
<ellipse cx="2.99654" cy="2.99995" rx="2.99654" ry="2.99995" transform="matrix(-0.992529 0.12201 0.121729 0.992563 3.58203 93.0217)" fill="url(#paint28_linear_17_349)"/>
</g>
<g filter="url(#filter12_f_17_349)">
<ellipse cx="2.99654" cy="2.99995" rx="2.99654" ry="2.99995" transform="matrix(-0.992529 0.12201 0.121729 0.992563 39.2942 97)" fill="url(#paint29_linear_17_349)"/>
<ellipse cx="2.99654" cy="2.99995" rx="2.99654" ry="2.99995" transform="matrix(-0.992529 0.12201 0.121729 0.992563 28.389 98.3406)" fill="url(#paint30_linear_17_349)"/>
<ellipse cx="2.99654" cy="2.99995" rx="2.99654" ry="2.99995" transform="matrix(-0.992529 0.12201 0.121729 0.992563 17.4837 99.6811)" fill="url(#paint31_linear_17_349)"/>
<ellipse cx="2.99654" cy="2.99995" rx="2.99654" ry="2.99995" transform="matrix(-0.992529 0.12201 0.121729 0.992563 6.57852 101.022)" fill="url(#paint32_linear_17_349)"/>
</g>
<g filter="url(#filter13_f_17_349)">
<ellipse cx="2.99654" cy="2.99995" rx="2.99654" ry="2.99995" transform="matrix(-0.992529 0.12201 0.121729 0.992563 42.2907 105)" fill="url(#paint33_linear_17_349)"/>
<ellipse cx="2.99654" cy="2.99995" rx="2.99654" ry="2.99995" transform="matrix(-0.992529 0.12201 0.121729 0.992563 31.3855 106.341)" fill="url(#paint34_linear_17_349)"/>
<ellipse cx="2.99654" cy="2.99995" rx="2.99654" ry="2.99995" transform="matrix(-0.992529 0.12201 0.121729 0.992563 20.4803 107.681)" fill="url(#paint35_linear_17_349)"/>
<ellipse cx="2.99654" cy="2.99995" rx="2.99654" ry="2.99995" transform="matrix(-0.992529 0.12201 0.121729 0.992563 9.57501 109.022)" fill="url(#paint36_linear_17_349)"/>
</g>
<g filter="url(#filter14_f_17_349)">
<ellipse cx="2.99654" cy="2.99995" rx="2.99654" ry="2.99995" transform="matrix(-0.992529 0.12201 0.121729 0.992563 45.2872 113)" fill="url(#paint37_linear_17_349)"/>
<ellipse cx="2.99654" cy="2.99995" rx="2.99654" ry="2.99995" transform="matrix(-0.992529 0.12201 0.121729 0.992563 34.382 114.341)" fill="url(#paint38_linear_17_349)"/>
<ellipse cx="2.99654" cy="2.99995" rx="2.99654" ry="2.99995" transform="matrix(-0.992529 0.12201 0.121729 0.992563 23.4767 115.681)" fill="url(#paint39_linear_17_349)"/>
<ellipse cx="2.99654" cy="2.99995" rx="2.99654" ry="2.99995" transform="matrix(-0.992529 0.12201 0.121729 0.992563 12.5715 117.022)" fill="url(#paint40_linear_17_349)"/>
<ellipse cx="2.99654" cy="2.99995" rx="2.99654" ry="2.99995" transform="matrix(-0.992529 0.12201 0.121729 0.992563 1.66628 118.362)" fill="url(#paint41_linear_17_349)"/>
</g>
<g filter="url(#filter15_f_17_349)">
<ellipse cx="2.99654" cy="2.99995" rx="2.99654" ry="2.99995" transform="matrix(-0.992529 0.12201 0.121729 0.992563 48.2837 121)" fill="url(#paint42_linear_17_349)"/>
<ellipse cx="2.99654" cy="2.99995" rx="2.99654" ry="2.99995" transform="matrix(-0.992529 0.12201 0.121729 0.992563 37.3784 122.341)" fill="url(#paint43_linear_17_349)"/>
<ellipse cx="2.99654" cy="2.99995" rx="2.99654" ry="2.99995" transform="matrix(-0.992529 0.12201 0.121729 0.992563 26.4732 123.681)" fill="url(#paint44_linear_17_349)"/>
<ellipse cx="2.99654" cy="2.99995" rx="2.99654" ry="2.99995" transform="matrix(-0.992529 0.12201 0.121729 0.992563 15.568 125.022)" fill="url(#paint45_linear_17_349)"/>
<ellipse cx="2.99654" cy="2.99995" rx="2.99654" ry="2.99995" transform="matrix(-0.992529 0.12201 0.121729 0.992563 4.66275 126.362)" fill="url(#paint46_linear_17_349)"/>
</g>
<g filter="url(#filter16_f_17_349)">
<ellipse cx="2.99654" cy="2.99995" rx="2.99654" ry="2.99995" transform="matrix(-0.992529 0.12201 0.121729 0.992563 51.2802 129)" fill="url(#paint47_linear_17_349)"/>
<ellipse cx="2.99654" cy="2.99995" rx="2.99654" ry="2.99995" transform="matrix(-0.992529 0.12201 0.121729 0.992563 40.3749 130.341)" fill="url(#paint48_linear_17_349)"/>
<ellipse cx="2.99654" cy="2.99995" rx="2.99654" ry="2.99995" transform="matrix(-0.992529 0.12201 0.121729 0.992563 29.4697 131.681)" fill="url(#paint49_linear_17_349)"/>
<ellipse cx="2.99654" cy="2.99995" rx="2.99654" ry="2.99995" transform="matrix(-0.992529 0.12201 0.121729 0.992563 18.5645 133.022)" fill="url(#paint50_linear_17_349)"/>
<ellipse cx="2.99654" cy="2.99995" rx="2.99654" ry="2.99995" transform="matrix(-0.992529 0.12201 0.121729 0.992563 7.65926 134.362)" fill="url(#paint51_linear_17_349)"/>
</g>
<g filter="url(#filter17_f_17_349)">
<ellipse cx="2.99654" cy="2.99995" rx="2.99654" ry="2.99995" transform="matrix(-0.992529 0.12201 0.121729 0.992563 54.2767 137)" fill="url(#paint52_linear_17_349)"/>
<ellipse cx="2.99654" cy="2.99995" rx="2.99654" ry="2.99995" transform="matrix(-0.992529 0.12201 0.121729 0.992563 43.3714 138.341)" fill="url(#paint53_linear_17_349)"/>
<ellipse cx="2.99654" cy="2.99995" rx="2.99654" ry="2.99995" transform="matrix(-0.992529 0.12201 0.121729 0.992563 32.4662 139.681)" fill="url(#paint54_linear_17_349)"/>
<ellipse cx="2.99654" cy="2.99995" rx="2.99654" ry="2.99995" transform="matrix(-0.992529 0.12201 0.121729 0.992563 21.561 141.022)" fill="url(#paint55_linear_17_349)"/>
<ellipse cx="2.99654" cy="2.99995" rx="2.99654" ry="2.99995" transform="matrix(-0.992529 0.12201 0.121729 0.992563 10.6557 142.362)" fill="url(#paint56_linear_17_349)"/>
<ellipse cx="2.99654" cy="2.99995" rx="2.99654" ry="2.99995" transform="matrix(-0.992529 0.12201 0.121729 0.992563 -0.249496 143.703)" fill="url(#paint57_linear_17_349)"/>
</g>
<g filter="url(#filter18_f_17_349)">
<ellipse cx="2.99654" cy="2.99995" rx="2.99654" ry="2.99995" transform="matrix(-0.992529 0.12201 0.121729 0.992563 57.2732 145)" fill="url(#paint58_linear_17_349)"/>
<ellipse cx="2.99654" cy="2.99995" rx="2.99654" ry="2.99995" transform="matrix(-0.992529 0.12201 0.121729 0.992563 46.3679 146.341)" fill="url(#paint59_linear_17_349)"/>
<ellipse cx="2.99654" cy="2.99995" rx="2.99654" ry="2.99995" transform="matrix(-0.992529 0.12201 0.121729 0.992563 35.4627 147.681)" fill="url(#paint60_linear_17_349)"/>
<ellipse cx="2.99654" cy="2.99995" rx="2.99654" ry="2.99995" transform="matrix(-0.992529 0.12201 0.121729 0.992563 24.5575 149.022)" fill="url(#paint61_linear_17_349)"/>
<ellipse cx="2.99654" cy="2.99995" rx="2.99654" ry="2.99995" transform="matrix(-0.992529 0.12201 0.121729 0.992563 13.6522 150.362)" fill="url(#paint62_linear_17_349)"/>
<ellipse cx="2.99654" cy="2.99995" rx="2.99654" ry="2.99995" transform="matrix(-0.992529 0.12201 0.121729 0.992563 2.74701 151.703)" fill="url(#paint63_linear_17_349)"/>
</g>
<g filter="url(#filter19_f_17_349)">
<ellipse cx="2.99654" cy="2.99995" rx="2.99654" ry="2.99995" transform="matrix(-0.992529 0.12201 0.121729 0.992563 60.2696 153)" fill="url(#paint64_linear_17_349)"/>
<ellipse cx="2.99654" cy="2.99995" rx="2.99654" ry="2.99995" transform="matrix(-0.992529 0.12201 0.121729 0.992563 49.3644 154.341)" fill="url(#paint65_linear_17_349)"/>
<ellipse cx="2.99654" cy="2.99995" rx="2.99654" ry="2.99995" transform="matrix(-0.992529 0.12201 0.121729 0.992563 38.4592 155.681)" fill="url(#paint66_linear_17_349)"/>
<ellipse cx="2.99654" cy="2.99995" rx="2.99654" ry="2.99995" transform="matrix(-0.992529 0.12201 0.121729 0.992563 27.554 157.022)" fill="url(#paint67_linear_17_349)"/>
<ellipse cx="2.99654" cy="2.99995" rx="2.99654" ry="2.99995" transform="matrix(-0.992529 0.12201 0.121729 0.992563 16.6487 158.362)" fill="url(#paint68_linear_17_349)"/>
<ellipse cx="2.99654" cy="2.99995" rx="2.99654" ry="2.99995" transform="matrix(-0.992529 0.12201 0.121729 0.992563 5.74348 159.703)" fill="url(#paint69_linear_17_349)"/>
</g>
<defs>
<filter id="filter0_f_17_349" x="-57.6575" y="0.342926" width="62.5197" height="14.7035" filterUnits="userSpaceOnUse" color-interpolation-filters="sRGB">
<feFlood flood-opacity="0" result="BackgroundImageFix"/>
<feBlend mode="normal" in="SourceGraphic" in2="BackgroundImageFix" result="shape"/>
<feGaussianBlur stdDeviation="0.5" result="effect1_foregroundBlur_17_349"/>
</filter>
<filter id="filter1_f_17_349" x="-54.7991" y="8.34293" width="62.5197" height="14.7035" filterUnits="userSpaceOnUse" color-interpolation-filters="sRGB">
<feFlood flood-opacity="0" result="BackgroundImageFix"/>
<feBlend mode="normal" in="SourceGraphic" in2="BackgroundImageFix" result="shape"/>
<feGaussianBlur stdDeviation="0.5" result="effect1_foregroundBlur_17_349"/>
</filter>
<filter id="filter2_f_17_349" x="-51.8026" y="16.3429" width="62.5197" height="14.7035" filterUnits="userSpaceOnUse" color-interpolation-filters="sRGB">
<feFlood flood-opacity="0" result="BackgroundImageFix"/>
<feBlend mode="normal" in="SourceGraphic" in2="BackgroundImageFix" result="shape"/>
<feGaussianBlur stdDeviation="0.5" result="effect1_foregroundBlur_17_349"/>
</filter>
<filter id="filter3_f_17_349" x="-48.8061" y="24.3429" width="62.5197" height="14.7035" filterUnits="userSpaceOnUse" color-interpolation-filters="sRGB">
<feFlood flood-opacity="0" result="BackgroundImageFix"/>
<feBlend mode="normal" in="SourceGraphic" in2="BackgroundImageFix" result="shape"/>
<feGaussianBlur stdDeviation="0.5" result="effect1_foregroundBlur_17_349"/>
</filter>
<filter id="filter4_f_17_349" x="-45.8096" y="32.3429" width="62.5197" height="14.7035" filterUnits="userSpaceOnUse" color-interpolation-filters="sRGB">
<feFlood flood-opacity="0" result="BackgroundImageFix"/>
<feBlend mode="normal" in="SourceGraphic" in2="BackgroundImageFix" result="shape"/>
<feGaussianBlur stdDeviation="0.5" result="effect1_foregroundBlur_17_349"/>
</filter>
<filter id="filter5_f_17_349" x="-42.8131" y="40.3429" width="62.5197" height="14.7035" filterUnits="userSpaceOnUse" color-interpolation-filters="sRGB">
<feFlood flood-opacity="0" result="BackgroundImageFix"/>
<feBlend mode="normal" in="SourceGraphic" in2="BackgroundImageFix" result="shape"/>
<feGaussianBlur stdDeviation="0.5" result="effect1_foregroundBlur_17_349"/>
</filter>
<filter id="filter6_f_17_349" x="-39.8166" y="48.3429" width="62.5197" height="14.7035" filterUnits="userSpaceOnUse" color-interpolation-filters="sRGB">
<feFlood flood-opacity="0" result="BackgroundImageFix"/>
<feBlend mode="normal" in="SourceGraphic" in2="BackgroundImageFix" result="shape"/>
<feGaussianBlur stdDeviation="0.5" result="effect1_foregroundBlur_17_349"/>
</filter>
<filter id="filter7_f_17_349" x="-36.8202" y="56.3429" width="62.5197" height="14.7035" filterUnits="userSpaceOnUse" color-interpolation-filters="sRGB">
<feFlood flood-opacity="0" result="BackgroundImageFix"/>
<feBlend mode="normal" in="SourceGraphic" in2="BackgroundImageFix" result="shape"/>
<feGaussianBlur stdDeviation="0.5" result="effect1_foregroundBlur_17_349"/>
</filter>
<filter id="filter8_f_17_349" x="-33.8237" y="64.3429" width="62.5197" height="14.7035" filterUnits="userSpaceOnUse" color-interpolation-filters="sRGB">
<feFlood flood-opacity="0" result="BackgroundImageFix"/>
<feBlend mode="normal" in="SourceGraphic" in2="BackgroundImageFix" result="shape"/>
<feGaussianBlur stdDeviation="0.5" result="effect1_foregroundBlur_17_349"/>
</filter>
<filter id="filter9_f_17_349" x="-30.8272" y="72.3429" width="62.5198" height="14.7035" filterUnits="userSpaceOnUse" color-interpolation-filters="sRGB">
<feFlood flood-opacity="0" result="BackgroundImageFix"/>
<feBlend mode="normal" in="SourceGraphic" in2="BackgroundImageFix" result="shape"/>
<feGaussianBlur stdDeviation="0.5" result="effect1_foregroundBlur_17_349"/>
</filter>
<filter id="filter10_f_17_349" x="-27.6926" y="80.3429" width="62.5197" height="14.7035" filterUnits="userSpaceOnUse" color-interpolation-filters="sRGB">
<feFlood flood-opacity="0" result="BackgroundImageFix"/>
<feBlend mode="normal" in="SourceGraphic" in2="BackgroundImageFix" result="shape"/>
<feGaussianBlur stdDeviation="0.5" result="effect1_foregroundBlur_17_349"/>
</filter>
<filter id="filter11_f_17_349" x="-24.8342" y="88.3429" width="62.5197" height="14.7035" filterUnits="userSpaceOnUse" color-interpolation-filters="sRGB">
<feFlood flood-opacity="0" result="BackgroundImageFix"/>
<feBlend mode="normal" in="SourceGraphic" in2="BackgroundImageFix" result="shape"/>
<feGaussianBlur stdDeviation="0.5" result="effect1_foregroundBlur_17_349"/>
</filter>
<filter id="filter12_f_17_349" x="-21.8377" y="96.343" width="62.5197" height="14.7034" filterUnits="userSpaceOnUse" color-interpolation-filters="sRGB">
<feFlood flood-opacity="0" result="BackgroundImageFix"/>
<feBlend mode="normal" in="SourceGraphic" in2="BackgroundImageFix" result="shape"/>
<feGaussianBlur stdDeviation="0.5" result="effect1_foregroundBlur_17_349"/>
</filter>
<filter id="filter13_f_17_349" x="-18.8412" y="104.343" width="62.5198" height="14.7034" filterUnits="userSpaceOnUse" color-interpolation-filters="sRGB">
<feFlood flood-opacity="0" result="BackgroundImageFix"/>
<feBlend mode="normal" in="SourceGraphic" in2="BackgroundImageFix" result="shape"/>
<feGaussianBlur stdDeviation="0.5" result="effect1_foregroundBlur_17_349"/>
</filter>
<filter id="filter14_f_17_349" x="-15.8447" y="112.343" width="62.5197" height="14.7034" filterUnits="userSpaceOnUse" color-interpolation-filters="sRGB">
<feFlood flood-opacity="0" result="BackgroundImageFix"/>
<feBlend mode="normal" in="SourceGraphic" in2="BackgroundImageFix" result="shape"/>
<feGaussianBlur stdDeviation="0.5" result="effect1_foregroundBlur_17_349"/>
</filter>
<filter id="filter15_f_17_349" x="-12.8483" y="120.343" width="62.5197" height="14.7034" filterUnits="userSpaceOnUse" color-interpolation-filters="sRGB">
<feFlood flood-opacity="0" result="BackgroundImageFix"/>
<feBlend mode="normal" in="SourceGraphic" in2="BackgroundImageFix" result="shape"/>
<feGaussianBlur stdDeviation="0.5" result="effect1_foregroundBlur_17_349"/>
</filter>
<filter id="filter16_f_17_349" x="-9.85176" y="128.343" width="62.5197" height="14.7034" filterUnits="userSpaceOnUse" color-interpolation-filters="sRGB">
<feFlood flood-opacity="0" result="BackgroundImageFix"/>
<feBlend mode="normal" in="SourceGraphic" in2="BackgroundImageFix" result="shape"/>
<feGaussianBlur stdDeviation="0.5" result="effect1_foregroundBlur_17_349"/>
</filter>
<filter id="filter17_f_17_349" x="-6.85527" y="136.343" width="62.5197" height="14.7034" filterUnits="userSpaceOnUse" color-interpolation-filters="sRGB">
<feFlood flood-opacity="0" result="BackgroundImageFix"/>
<feBlend mode="normal" in="SourceGraphic" in2="BackgroundImageFix" result="shape"/>
<feGaussianBlur stdDeviation="0.5" result="effect1_foregroundBlur_17_349"/>
</filter>
<filter id="filter18_f_17_349" x="-3.85876" y="144.343" width="62.5197" height="14.7034" filterUnits="userSpaceOnUse" color-interpolation-filters="sRGB">
<feFlood flood-opacity="0" result="BackgroundImageFix"/>
<feBlend mode="normal" in="SourceGraphic" in2="BackgroundImageFix" result="shape"/>
<feGaussianBlur stdDeviation="0.5" result="effect1_foregroundBlur_17_349"/>
</filter>
<filter id="filter19_f_17_349" x="-0.862289" y="152.343" width="62.5198" height="14.7034" filterUnits="userSpaceOnUse" color-interpolation-filters="sRGB">
<feFlood flood-opacity="0" result="BackgroundImageFix"/>
<feBlend mode="normal" in="SourceGraphic" in2="BackgroundImageFix" result="shape"/>
<feGaussianBlur stdDeviation="0.5" result="effect1_foregroundBlur_17_349"/>
</filter>
<linearGradient id="paint0_linear_17_349" x1="0" y1="2.99995" x2="5.99308" y2="2.99995" gradientUnits="userSpaceOnUse">
<stop stop-color="#7E8C9C"/>
<stop offset="1" stop-color="white"/>
</linearGradient>
<linearGradient id="paint1_linear_17_349" x1="0" y1="2.99995" x2="5.99308" y2="2.99995" gradientUnits="userSpaceOnUse">
<stop stop-color="#7E8C9C"/>
<stop offset="1" stop-color="white"/>
</linearGradient>
<linearGradient id="paint2_linear_17_349" x1="0" y1="2.99995" x2="5.99308" y2="2.99995" gradientUnits="userSpaceOnUse">
<stop stop-color="#7E8C9C"/>
<stop offset="1" stop-color="white"/>
</linearGradient>
<linearGradient id="paint3_linear_17_349" x1="0" y1="2.99995" x2="5.99308" y2="2.99995" gradientUnits="userSpaceOnUse">
<stop stop-color="#7E8C9C"/>
<stop offset="1" stop-color="white"/>
</linearGradient>
<linearGradient id="paint4_linear_17_349" x1="0" y1="2.99995" x2="5.99308" y2="2.99995" gradientUnits="userSpaceOnUse">
<stop stop-color="#7E8C9C"/>
<stop offset="1" stop-color="white"/>
</linearGradient>
<linearGradient id="paint5_linear_17_349" x1="0" y1="2.99995" x2="5.99308" y2="2.99995" gradientUnits="userSpaceOnUse">
<stop stop-color="#7E8C9C"/>
<stop offset="1" stop-color="white"/>
</linearGradient>
<linearGradient id="paint6_linear_17_349" x1="0" y1="2.99995" x2="5.99308" y2="2.99995" gradientUnits="userSpaceOnUse">
<stop stop-color="#7E8C9C"/>
<stop offset="1" stop-color="white"/>
</linearGradient>
<linearGradient id="paint7_linear_17_349" x1="0" y1="2.99995" x2="5.99308" y2="2.99995" gradientUnits="userSpaceOnUse">
<stop stop-color="#7E8C9C"/>
<stop offset="1" stop-color="white"/>
</linearGradient>
<linearGradient id="paint8_linear_17_349" x1="0" y1="2.99995" x2="5.99308" y2="2.99995" gradientUnits="userSpaceOnUse">
<stop stop-color="#7E8C9C"/>
<stop offset="1" stop-color="white"/>
</linearGradient>
<linearGradient id="paint9_linear_17_349" x1="0" y1="2.99995" x2="5.99308" y2="2.99995" gradientUnits="userSpaceOnUse">
<stop stop-color="#7E8C9C"/>
<stop offset="1" stop-color="white"/>
</linearGradient>
<linearGradient id="paint10_linear_17_349" x1="0" y1="2.99995" x2="5.99308" y2="2.99995" gradientUnits="userSpaceOnUse">
<stop stop-color="#7E8C9C"/>
<stop offset="1" stop-color="white"/>
</linearGradient>
<linearGradient id="paint11_linear_17_349" x1="0" y1="2.99995" x2="5.99308" y2="2.99995" gradientUnits="userSpaceOnUse">
<stop stop-color="#7E8C9C"/>
<stop offset="1" stop-color="white"/>
</linearGradient>
<linearGradient id="paint12_linear_17_349" x1="0" y1="2.99995" x2="5.99308" y2="2.99995" gradientUnits="userSpaceOnUse">
<stop stop-color="#7E8C9C"/>
<stop offset="1" stop-color="white"/>
</linearGradient>
<linearGradient id="paint13_linear_17_349" x1="0" y1="2.99995" x2="5.99308" y2="2.99995" gradientUnits="userSpaceOnUse">
<stop stop-color="#7E8C9C"/>
<stop offset="1" stop-color="white"/>
</linearGradient>
<linearGradient id="paint14_linear_17_349" x1="0" y1="2.99995" x2="5.99308" y2="2.99995" gradientUnits="userSpaceOnUse">
<stop stop-color="#7E8C9C"/>
<stop offset="1" stop-color="white"/>
</linearGradient>
<linearGradient id="paint15_linear_17_349" x1="0" y1="2.99995" x2="5.99308" y2="2.99995" gradientUnits="userSpaceOnUse">
<stop stop-color="#7E8C9C"/>
<stop offset="1" stop-color="white"/>
</linearGradient>
<linearGradient id="paint16_linear_17_349" x1="0" y1="2.99995" x2="5.99308" y2="2.99995" gradientUnits="userSpaceOnUse">
<stop stop-color="#7E8C9C"/>
<stop offset="1" stop-color="white"/>
</linearGradient>
<linearGradient id="paint17_linear_17_349" x1="0" y1="2.99995" x2="5.99308" y2="2.99995" gradientUnits="userSpaceOnUse">
<stop stop-color="#7E8C9C"/>
<stop offset="1" stop-color="white"/>
</linearGradient>
<linearGradient id="paint18_linear_17_349" x1="0" y1="2.99995" x2="5.99308" y2="2.99995" gradientUnits="userSpaceOnUse">
<stop stop-color="#7E8C9C"/>
<stop offset="1" stop-color="white"/>
</linearGradient>
<linearGradient id="paint19_linear_17_349" x1="0" y1="2.99995" x2="5.99308" y2="2.99995" gradientUnits="userSpaceOnUse">
<stop stop-color="#7E8C9C"/>
<stop offset="1" stop-color="white"/>
</linearGradient>
<linearGradient id="paint20_linear_17_349" x1="0" y1="2.99995" x2="5.99308" y2="2.99995" gradientUnits="userSpaceOnUse">
<stop stop-color="#7E8C9C"/>
<stop offset="1" stop-color="white"/>
</linearGradient>
<linearGradient id="paint21_linear_17_349" x1="0" y1="2.99995" x2="5.99308" y2="2.99995" gradientUnits="userSpaceOnUse">
<stop stop-color="#7E8C9C"/>
<stop offset="1" stop-color="white"/>
</linearGradient>
<linearGradient id="paint22_linear_17_349" x1="0" y1="2.99995" x2="5.99308" y2="2.99995" gradientUnits="userSpaceOnUse">
<stop stop-color="#7E8C9C"/>
<stop offset="1" stop-color="white"/>
</linearGradient>
<linearGradient id="paint23_linear_17_349" x1="0" y1="2.99995" x2="5.99308" y2="2.99995" gradientUnits="userSpaceOnUse">
<stop stop-color="#7E8C9C"/>
<stop offset="1" stop-color="white"/>
</linearGradient>
<linearGradient id="paint24_linear_17_349" x1="0" y1="2.99995" x2="5.99308" y2="2.99995" gradientUnits="userSpaceOnUse">
<stop stop-color="#7E8C9C"/>
<stop offset="1" stop-color="white"/>
</linearGradient>
<linearGradient id="paint25_linear_17_349" x1="0" y1="2.99995" x2="5.99308" y2="2.99995" gradientUnits="userSpaceOnUse">
<stop stop-color="#7E8C9C"/>
<stop offset="1" stop-color="white"/>
</linearGradient>
<linearGradient id="paint26_linear_17_349" x1="0" y1="2.99995" x2="5.99308" y2="2.99995" gradientUnits="userSpaceOnUse">
<stop stop-color="#7E8C9C"/>
<stop offset="1" stop-color="white"/>
</linearGradient>
<linearGradient id="paint27_linear_17_349" x1="0" y1="2.99995" x2="5.99308" y2="2.99995" gradientUnits="userSpaceOnUse">
<stop stop-color="#7E8C9C"/>
<stop offset="1" stop-color="white"/>
</linearGradient>
<linearGradient id="paint28_linear_17_349" x1="0" y1="2.99995" x2="5.99308" y2="2.99995" gradientUnits="userSpaceOnUse">
<stop stop-color="#7E8C9C"/>
<stop offset="1" stop-color="white"/>
</linearGradient>
<linearGradient id="paint29_linear_17_349" x1="0" y1="2.99995" x2="5.99308" y2="2.99995" gradientUnits="userSpaceOnUse">
<stop stop-color="#7E8C9C"/>
<stop offset="1" stop-color="white"/>
</linearGradient>
<linearGradient id="paint30_linear_17_349" x1="0" y1="2.99995" x2="5.99308" y2="2.99995" gradientUnits="userSpaceOnUse">
<stop stop-color="#7E8C9C"/>
<stop offset="1" stop-color="white"/>
</linearGradient>
<linearGradient id="paint31_linear_17_349" x1="0" y1="2.99995" x2="5.99308" y2="2.99995" gradientUnits="userSpaceOnUse">
<stop stop-color="#7E8C9C"/>
<stop offset="1" stop-color="white"/>
</linearGradient>
<linearGradient id="paint32_linear_17_349" x1="0" y1="2.99995" x2="5.99308" y2="2.99995" gradientUnits="userSpaceOnUse">
<stop stop-color="#7E8C9C"/>
<stop offset="1" stop-color="white"/>
</linearGradient>
<linearGradient id="paint33_linear_17_349" x1="0" y1="2.99995" x2="5.99308" y2="2.99995" gradientUnits="userSpaceOnUse">
<stop stop-color="#7E8C9C"/>
<stop offset="1" stop-color="white"/>
</linearGradient>
<linearGradient id="paint34_linear_17_349" x1="0" y1="2.99995" x2="5.99308" y2="2.99995" gradientUnits="userSpaceOnUse">
<stop stop-color="#7E8C9C"/>
<stop offset="1" stop-color="white"/>
</linearGradient>
<linearGradient id="paint35_linear_17_349" x1="0" y1="2.99995" x2="5.99308" y2="2.99995" gradientUnits="userSpaceOnUse">
<stop stop-color="#7E8C9C"/>
<stop offset="1" stop-color="white"/>
</linearGradient>
<linearGradient id="paint36_linear_17_349" x1="0" y1="2.99995" x2="5.99308" y2="2.99995" gradientUnits="userSpaceOnUse">
<stop stop-color="#7E8C9C"/>
<stop offset="1" stop-color="white"/>
</linearGradient>
<linearGradient id="paint37_linear_17_349" x1="0" y1="2.99995" x2="5.99308" y2="2.99995" gradientUnits="userSpaceOnUse">
<stop stop-color="#7E8C9C"/>
<stop offset="1" stop-color="white"/>
</linearGradient>
<linearGradient id="paint38_linear_17_349" x1="0" y1="2.99995" x2="5.99308" y2="2.99995" gradientUnits="userSpaceOnUse">
<stop stop-color="#7E8C9C"/>
<stop offset="1" stop-color="white"/>
</linearGradient>
<linearGradient id="paint39_linear_17_349" x1="0" y1="2.99995" x2="5.99308" y2="2.99995" gradientUnits="userSpaceOnUse">
<stop stop-color="#7E8C9C"/>
<stop offset="1" stop-color="white"/>
</linearGradient>
<linearGradient id="paint40_linear_17_349" x1="0" y1="2.99995" x2="5.99308" y2="2.99995" gradientUnits="userSpaceOnUse">
<stop stop-color="#7E8C9C"/>
<stop offset="1" stop-color="white"/>
</linearGradient>
<linearGradient id="paint41_linear_17_349" x1="0" y1="2.99995" x2="5.99308" y2="2.99995" gradientUnits="userSpaceOnUse">
<stop stop-color="#7E8C9C"/>
<stop offset="1" stop-color="white"/>
</linearGradient>
<linearGradient id="paint42_linear_17_349" x1="0" y1="2.99995" x2="5.99308" y2="2.99995" gradientUnits="userSpaceOnUse">
<stop stop-color="#7E8C9C"/>
<stop offset="1" stop-color="white"/>
</linearGradient>
<linearGradient id="paint43_linear_17_349" x1="0" y1="2.99995" x2="5.99308" y2="2.99995" gradientUnits="userSpaceOnUse">
<stop stop-color="#7E8C9C"/>
<stop offset="1" stop-color="white"/>
</linearGradient>
<linearGradient id="paint44_linear_17_349" x1="0" y1="2.99995" x2="5.99308" y2="2.99995" gradientUnits="userSpaceOnUse">
<stop stop-color="#7E8C9C"/>
<stop offset="1" stop-color="white"/>
</linearGradient>
<linearGradient id="paint45_linear_17_349" x1="0" y1="2.99995" x2="5.99308" y2="2.99995" gradientUnits="userSpaceOnUse">
<stop stop-color="#7E8C9C"/>
<stop offset="1" stop-color="white"/>
</linearGradient>
<linearGradient id="paint46_linear_17_349" x1="0" y1="2.99995" x2="5.99308" y2="2.99995" gradientUnits="userSpaceOnUse">
<stop stop-color="#7E8C9C"/>
<stop offset="1" stop-color="white"/>
</linearGradient>
<linearGradient id="paint47_linear_17_349" x1="0" y1="2.99995" x2="5.99308" y2="2.99995" gradientUnits="userSpaceOnUse">
<stop stop-color="#7E8C9C"/>
<stop offset="1" stop-color="white"/>
</linearGradient>
<linearGradient id="paint48_linear_17_349" x1="0" y1="2.99995" x2="5.99308" y2="2.99995" gradientUnits="userSpaceOnUse">
<stop stop-color="#7E8C9C"/>
<stop offset="1" stop-color="white"/>
</linearGradient>
<linearGradient id="paint49_linear_17_349" x1="0" y1="2.99995" x2="5.99308" y2="2.99995" gradientUnits="userSpaceOnUse">
<stop stop-color="#7E8C9C"/>
<stop offset="1" stop-color="white"/>
</linearGradient>
<linearGradient id="paint50_linear_17_349" x1="0" y1="2.99995" x2="5.99308" y2="2.99995" gradientUnits="userSpaceOnUse">
<stop stop-color="#7E8C9C"/>
<stop offset="1" stop-color="white"/>
</linearGradient>
<linearGradient id="paint51_linear_17_349" x1="0" y1="2.99995" x2="5.99308" y2="2.99995" gradientUnits="userSpaceOnUse">
<stop stop-color="#7E8C9C"/>
<stop offset="1" stop-color="white"/>
</linearGradient>
<linearGradient id="paint52_linear_17_349" x1="0" y1="2.99995" x2="5.99308" y2="2.99995" gradientUnits="userSpaceOnUse">
<stop stop-color="#7E8C9C"/>
<stop offset="1" stop-color="white"/>
</linearGradient>
<linearGradient id="paint53_linear_17_349" x1="0" y1="2.99995" x2="5.99308" y2="2.99995" gradientUnits="userSpaceOnUse">
<stop stop-color="#7E8C9C"/>
<stop offset="1" stop-color="white"/>
</linearGradient>
<linearGradient id="paint54_linear_17_349" x1="0" y1="2.99995" x2="5.99308" y2="2.99995" gradientUnits="userSpaceOnUse">
<stop stop-color="#7E8C9C"/>
<stop offset="1" stop-color="white"/>
</linearGradient>
<linearGradient id="paint55_linear_17_349" x1="0" y1="2.99995" x2="5.99308" y2="2.99995" gradientUnits="userSpaceOnUse">
<stop stop-color="#7E8C9C"/>
<stop offset="1" stop-color="white"/>
</linearGradient>
<linearGradient id="paint56_linear_17_349" x1="0" y1="2.99995" x2="5.99308" y2="2.99995" gradientUnits="userSpaceOnUse">
<stop stop-color="#7E8C9C"/>
<stop offset="1" stop-color="white"/>
</linearGradient>
<linearGradient id="paint57_linear_17_349" x1="0" y1="2.99995" x2="5.99308" y2="2.99995" gradientUnits="userSpaceOnUse">
<stop stop-color="#7E8C9C"/>
<stop offset="1" stop-color="white"/>
</linearGradient>
<linearGradient id="paint58_linear_17_349" x1="0" y1="2.99995" x2="5.99308" y2="2.99995" gradientUnits="userSpaceOnUse">
<stop stop-color="#7E8C9C"/>
<stop offset="1" stop-color="white"/>
</linearGradient>
<linearGradient id="paint59_linear_17_349" x1="0" y1="2.99995" x2="5.99308" y2="2.99995" gradientUnits="userSpaceOnUse">
<stop stop-color="#7E8C9C"/>
<stop offset="1" stop-color="white"/>
</linearGradient>
<linearGradient id="paint60_linear_17_349" x1="0" y1="2.99995" x2="5.99308" y2="2.99995" gradientUnits="userSpaceOnUse">
<stop stop-color="#7E8C9C"/>
<stop offset="1" stop-color="white"/>
</linearGradient>
<linearGradient id="paint61_linear_17_349" x1="0" y1="2.99995" x2="5.99308" y2="2.99995" gradientUnits="userSpaceOnUse">
<stop stop-color="#7E8C9C"/>
<stop offset="1" stop-color="white"/>
</linearGradient>
<linearGradient id="paint62_linear_17_349" x1="0" y1="2.99995" x2="5.99308" y2="2.99995" gradientUnits="userSpaceOnUse">
<stop stop-color="#7E8C9C"/>
<stop offset="1" stop-color="white"/>
</linearGradient>
<linearGradient id="paint63_linear_17_349" x1="0" y1="2.99995" x2="5.99308" y2="2.99995" gradientUnits="userSpaceOnUse">
<stop stop-color="#7E8C9C"/>
<stop offset="1" stop-color="white"/>
</linearGradient>
<linearGradient id="paint64_linear_17_349" x1="0" y1="2.99995" x2="5.99308" y2="2.99995" gradientUnits="userSpaceOnUse">
<stop stop-color="#7E8C9C"/>
<stop offset="1" stop-color="white"/>
</linearGradient>
<linearGradient id="paint65_linear_17_349" x1="0" y1="2.99995" x2="5.99308" y2="2.99995" gradientUnits="userSpaceOnUse">
<stop stop-color="#7E8C9C"/>
<stop offset="1" stop-color="white"/>
</linearGradient>
<linearGradient id="paint66_linear_17_349" x1="0" y1="2.99995" x2="5.99308" y2="2.99995" gradientUnits="userSpaceOnUse">
<stop stop-color="#7E8C9C"/>
<stop offset="1" stop-color="white"/>
</linearGradient>
<linearGradient id="paint67_linear_17_349" x1="0" y1="2.99995" x2="5.99308" y2="2.99995" gradientUnits="userSpaceOnUse">
<stop stop-color="#7E8C9C"/>
<stop offset="1" stop-color="white"/>
</linearGradient>
<linearGradient id="paint68_linear_17_349" x1="0" y1="2.99995" x2="5.99308" y2="2.99995" gradientUnits="userSpaceOnUse">
<stop stop-color="#7E8C9C"/>
<stop offset="1" stop-color="white"/>
</linearGradient>
<linearGradient id="paint69_linear_17_349" x1="0" y1="2.99995" x2="5.99308" y2="2.99995" gradientUnits="userSpaceOnUse">
<stop stop-color="#7E8C9C"/>
<stop offset="1" stop-color="white"/>
</linearGradient>
</defs>
</svg>
