<svg width="34" height="28" viewBox="0 0 34 28" fill="none" xmlns="http://www.w3.org/2000/svg">
<path d="M13.3861 2.88497C13.7346 2.53444 14.1643 2.27544 14.6369 2.13099C15.1096 1.98653 15.6107 1.9611 16.0955 2.05696C16.5804 2.15282 17.0341 2.36699 17.4163 2.68044C17.7984 2.99389 18.0972 3.39691 18.2861 3.85366C18.4749 4.31042 18.548 4.80676 18.4988 5.29857C18.4496 5.79038 18.2797 6.26241 18.0041 6.67271C17.7285 7.08301 17.3558 7.41887 16.9192 7.65042C16.4825 7.88197 15.9954 8.00205 15.5011 7.99997H2.00113M17.8861 25.115C18.2346 25.4655 18.6643 25.7245 19.1369 25.869C19.6096 26.0134 20.1107 26.0388 20.5955 25.943C21.0804 25.8471 21.5341 25.633 21.9163 25.3195C22.2984 25.0061 22.5972 24.603 22.7861 24.1463C22.9749 23.6895 23.048 23.1932 22.9988 22.7014C22.9496 22.2096 22.7797 21.7375 22.5041 21.3272C22.2285 20.9169 21.8558 20.5811 21.4192 20.3495C20.9825 20.118 20.4954 19.9979 20.0011 20H2.00113M25.5961 7.59497C26.0324 7.1598 26.5692 6.83885 27.159 6.66049C27.7489 6.48214 28.3736 6.45188 28.9779 6.5724C29.5822 6.69292 30.1475 6.9605 30.6237 7.35148C31.1 7.74245 31.4726 8.24477 31.7086 8.81401C31.9446 9.38325 32.0366 10.0019 31.9766 10.6151C31.9166 11.2284 31.7064 11.8175 31.3646 12.3302C31.0227 12.8429 30.5598 13.2635 30.0168 13.5547C29.4738 13.8459 28.8673 13.9989 28.2511 14H2.00113" stroke="black" stroke-width="3" stroke-linecap="round" stroke-linejoin="round"/>
</svg>
