<svg width="128" height="170" viewBox="0 0 128 170" fill="none" xmlns="http://www.w3.org/2000/svg">
<g filter="url(#filter0_f_44_150)">
<ellipse cx="2.99654" cy="2.99995" rx="2.99654" ry="2.99995" transform="matrix(-0.241784 0.97033 0.970261 0.242059 -5.01076 54.181)" fill="url(#paint0_linear_44_150)"/>
</g>
<g filter="url(#filter1_f_44_150)">
<ellipse cx="2.99654" cy="2.99995" rx="2.99654" ry="2.99995" transform="matrix(-0.241784 0.97033 0.970261 0.242059 3.53174 54.2505)" fill="url(#paint1_linear_44_150)"/>
<ellipse cx="2.99654" cy="2.99995" rx="2.99654" ry="2.99995" transform="matrix(-0.241784 0.97033 0.970261 0.242059 0.875183 64.9119)" fill="url(#paint2_linear_44_150)"/>
<ellipse cx="2.99654" cy="2.99995" rx="2.99654" ry="2.99995" transform="matrix(-0.241784 0.97033 0.970261 0.242059 -1.78139 75.5731)" fill="url(#paint3_linear_44_150)"/>
<ellipse cx="2.99654" cy="2.99995" rx="2.99654" ry="2.99995" transform="matrix(-0.241784 0.97033 0.970261 0.242059 -4.43793 86.2345)" fill="url(#paint4_linear_44_150)"/>
</g>
<g filter="url(#filter2_f_44_150)">
<ellipse cx="2.99654" cy="2.99995" rx="2.99654" ry="2.99995" transform="matrix(-0.241784 0.97033 0.970261 0.242059 12.0742 54.3199)" fill="url(#paint5_linear_44_150)"/>
<ellipse cx="2.99654" cy="2.99995" rx="2.99654" ry="2.99995" transform="matrix(-0.241784 0.97033 0.970261 0.242059 9.41768 64.9813)" fill="url(#paint6_linear_44_150)"/>
<ellipse cx="2.99654" cy="2.99995" rx="2.99654" ry="2.99995" transform="matrix(-0.241784 0.97033 0.970261 0.242059 6.76109 75.6426)" fill="url(#paint7_linear_44_150)"/>
<ellipse cx="2.99654" cy="2.99995" rx="2.99654" ry="2.99995" transform="matrix(-0.241784 0.97033 0.970261 0.242059 4.10454 86.304)" fill="url(#paint8_linear_44_150)"/>
<ellipse cx="2.99654" cy="2.99995" rx="2.99654" ry="2.99995" transform="matrix(-0.241784 0.97033 0.970261 0.242059 1.44797 96.9652)" fill="url(#paint9_linear_44_150)"/>
<ellipse cx="2.99654" cy="2.99995" rx="2.99654" ry="2.99995" transform="matrix(-0.241784 0.97033 0.970261 0.242059 -1.20859 107.627)" fill="url(#paint10_linear_44_150)"/>
</g>
<g filter="url(#filter3_f_44_150)">
<ellipse cx="2.99654" cy="2.99995" rx="2.99654" ry="2.99995" transform="matrix(-0.241784 0.97033 0.970261 0.242059 20.6167 54.3895)" fill="url(#paint11_linear_44_150)"/>
<ellipse cx="2.99654" cy="2.99995" rx="2.99654" ry="2.99995" transform="matrix(-0.241784 0.97033 0.970261 0.242059 17.9602 65.0509)" fill="url(#paint12_linear_44_150)"/>
<ellipse cx="2.99654" cy="2.99995" rx="2.99654" ry="2.99995" transform="matrix(-0.241784 0.97033 0.970261 0.242059 15.3036 75.7122)" fill="url(#paint13_linear_44_150)"/>
<ellipse cx="2.99654" cy="2.99995" rx="2.99654" ry="2.99995" transform="matrix(-0.241784 0.97033 0.970261 0.242059 12.647 86.3735)" fill="url(#paint14_linear_44_150)"/>
<ellipse cx="2.99654" cy="2.99995" rx="2.99654" ry="2.99995" transform="matrix(-0.241784 0.97033 0.970261 0.242059 9.99046 97.0348)" fill="url(#paint15_linear_44_150)"/>
<ellipse cx="2.99654" cy="2.99995" rx="2.99654" ry="2.99995" transform="matrix(-0.241784 0.97033 0.970261 0.242059 7.33391 107.696)" fill="url(#paint16_linear_44_150)"/>
</g>
<g filter="url(#filter4_f_44_150)">
<ellipse cx="2.99654" cy="2.99995" rx="2.99654" ry="2.99995" transform="matrix(-0.241784 0.97033 0.970261 0.242059 29.1592 54.459)" fill="url(#paint17_linear_44_150)"/>
<ellipse cx="2.99654" cy="2.99995" rx="2.99654" ry="2.99995" transform="matrix(-0.241784 0.97033 0.970261 0.242059 26.5026 65.1204)" fill="url(#paint18_linear_44_150)"/>
<ellipse cx="2.99654" cy="2.99995" rx="2.99654" ry="2.99995" transform="matrix(-0.241784 0.97033 0.970261 0.242059 23.8461 75.7816)" fill="url(#paint19_linear_44_150)"/>
<ellipse cx="2.99654" cy="2.99995" rx="2.99654" ry="2.99995" transform="matrix(-0.241784 0.97033 0.970261 0.242059 21.1895 86.443)" fill="url(#paint20_linear_44_150)"/>
<ellipse cx="2.99654" cy="2.99995" rx="2.99654" ry="2.99995" transform="matrix(-0.241784 0.97033 0.970261 0.242059 18.5329 97.1042)" fill="url(#paint21_linear_44_150)"/>
<ellipse cx="2.99654" cy="2.99995" rx="2.99654" ry="2.99995" transform="matrix(-0.241784 0.97033 0.970261 0.242059 15.8764 107.766)" fill="url(#paint22_linear_44_150)"/>
</g>
<g filter="url(#filter5_f_44_150)">
<ellipse cx="2.99654" cy="2.99995" rx="2.99654" ry="2.99995" transform="matrix(-0.241784 0.97033 0.970261 0.242059 37.7512 54.3995)" fill="url(#paint23_linear_44_150)"/>
<ellipse cx="2.99654" cy="2.99995" rx="2.99654" ry="2.99995" transform="matrix(-0.241784 0.97033 0.970261 0.242059 35.0946 65.0609)" fill="url(#paint24_linear_44_150)"/>
<ellipse cx="2.99654" cy="2.99995" rx="2.99654" ry="2.99995" transform="matrix(-0.241784 0.97033 0.970261 0.242059 32.4381 75.7222)" fill="url(#paint25_linear_44_150)"/>
<ellipse cx="2.99654" cy="2.99995" rx="2.99654" ry="2.99995" transform="matrix(-0.241784 0.97033 0.970261 0.242059 29.7815 86.3835)" fill="url(#paint26_linear_44_150)"/>
<ellipse cx="2.99654" cy="2.99995" rx="2.99654" ry="2.99995" transform="matrix(-0.241784 0.97033 0.970261 0.242059 27.1249 97.0448)" fill="url(#paint27_linear_44_150)"/>
<ellipse cx="2.99654" cy="2.99995" rx="2.99654" ry="2.99995" transform="matrix(-0.241784 0.97033 0.970261 0.242059 24.4684 107.706)" fill="url(#paint28_linear_44_150)"/>
</g>
<g filter="url(#filter6_f_44_150)">
<ellipse cx="2.99654" cy="2.99995" rx="2.99654" ry="2.99995" transform="matrix(-0.241784 0.97033 0.970261 0.242059 46.2442 54.5979)" fill="url(#paint29_linear_44_150)"/>
<ellipse cx="2.99654" cy="2.99995" rx="2.99654" ry="2.99995" transform="matrix(-0.241784 0.97033 0.970261 0.242059 43.5876 65.2593)" fill="url(#paint30_linear_44_150)"/>
<ellipse cx="2.99654" cy="2.99995" rx="2.99654" ry="2.99995" transform="matrix(-0.241784 0.97033 0.970261 0.242059 40.931 75.9205)" fill="url(#paint31_linear_44_150)"/>
<ellipse cx="2.99654" cy="2.99995" rx="2.99654" ry="2.99995" transform="matrix(-0.241784 0.97033 0.970261 0.242059 38.2745 86.5819)" fill="url(#paint32_linear_44_150)"/>
<ellipse cx="2.99654" cy="2.99995" rx="2.99654" ry="2.99995" transform="matrix(-0.241784 0.97033 0.970261 0.242059 35.6179 97.2432)" fill="url(#paint33_linear_44_150)"/>
<ellipse cx="2.99654" cy="2.99995" rx="2.99654" ry="2.99995" transform="matrix(-0.241784 0.97033 0.970261 0.242059 32.9614 107.905)" fill="url(#paint34_linear_44_150)"/>
</g>
<g filter="url(#filter7_f_44_150)">
<ellipse cx="2.99654" cy="2.99995" rx="2.99654" ry="2.99995" transform="matrix(-0.241784 0.97033 0.970261 0.242059 54.7867 54.6675)" fill="url(#paint35_linear_44_150)"/>
<ellipse cx="2.99654" cy="2.99995" rx="2.99654" ry="2.99995" transform="matrix(-0.241784 0.97033 0.970261 0.242059 52.1301 65.3287)" fill="url(#paint36_linear_44_150)"/>
<ellipse cx="2.99654" cy="2.99995" rx="2.99654" ry="2.99995" transform="matrix(-0.241784 0.97033 0.970261 0.242059 49.4735 75.9901)" fill="url(#paint37_linear_44_150)"/>
<ellipse cx="2.99654" cy="2.99995" rx="2.99654" ry="2.99995" transform="matrix(-0.241784 0.97033 0.970261 0.242059 46.817 86.6515)" fill="url(#paint38_linear_44_150)"/>
<ellipse cx="2.99654" cy="2.99995" rx="2.99654" ry="2.99995" transform="matrix(-0.241784 0.97033 0.970261 0.242059 44.1604 97.3127)" fill="url(#paint39_linear_44_150)"/>
<ellipse cx="2.99654" cy="2.99995" rx="2.99654" ry="2.99995" transform="matrix(-0.241784 0.97033 0.970261 0.242059 41.5039 107.974)" fill="url(#paint40_linear_44_150)"/>
</g>
<g filter="url(#filter8_f_44_150)">
<ellipse cx="2.99654" cy="2.99995" rx="2.99654" ry="2.99995" transform="matrix(-0.241784 0.97033 0.970261 0.242059 63.3292 54.7369)" fill="url(#paint41_linear_44_150)"/>
<ellipse cx="2.99654" cy="2.99995" rx="2.99654" ry="2.99995" transform="matrix(-0.241784 0.97033 0.970261 0.242059 60.6726 65.3983)" fill="url(#paint42_linear_44_150)"/>
<ellipse cx="2.99654" cy="2.99995" rx="2.99654" ry="2.99995" transform="matrix(-0.241784 0.97033 0.970261 0.242059 58.016 76.0596)" fill="url(#paint43_linear_44_150)"/>
<ellipse cx="2.99654" cy="2.99995" rx="2.99654" ry="2.99995" transform="matrix(-0.241784 0.97033 0.970261 0.242059 55.3595 86.7209)" fill="url(#paint44_linear_44_150)"/>
<ellipse cx="2.99654" cy="2.99995" rx="2.99654" ry="2.99995" transform="matrix(-0.241784 0.97033 0.970261 0.242059 52.7029 97.3822)" fill="url(#paint45_linear_44_150)"/>
<ellipse cx="2.99654" cy="2.99995" rx="2.99654" ry="2.99995" transform="matrix(-0.241784 0.97033 0.970261 0.242059 50.0463 108.044)" fill="url(#paint46_linear_44_150)"/>
</g>
<g filter="url(#filter9_f_44_150)">
<ellipse cx="2.99654" cy="2.99995" rx="2.99654" ry="2.99995" transform="matrix(-0.241784 0.97033 0.970261 0.242059 71.8716 54.8064)" fill="url(#paint47_linear_44_150)"/>
<ellipse cx="2.99654" cy="2.99995" rx="2.99654" ry="2.99995" transform="matrix(-0.241784 0.97033 0.970261 0.242059 69.2151 65.4678)" fill="url(#paint48_linear_44_150)"/>
<ellipse cx="2.99654" cy="2.99995" rx="2.99654" ry="2.99995" transform="matrix(-0.241784 0.97033 0.970261 0.242059 66.5585 76.129)" fill="url(#paint49_linear_44_150)"/>
<ellipse cx="2.99654" cy="2.99995" rx="2.99654" ry="2.99995" transform="matrix(-0.241784 0.97033 0.970261 0.242059 63.902 86.7904)" fill="url(#paint50_linear_44_150)"/>
<ellipse cx="2.99654" cy="2.99995" rx="2.99654" ry="2.99995" transform="matrix(-0.241784 0.97033 0.970261 0.242059 61.2454 97.4517)" fill="url(#paint51_linear_44_150)"/>
<ellipse cx="2.99654" cy="2.99995" rx="2.99654" ry="2.99995" transform="matrix(-0.241784 0.97033 0.970261 0.242059 58.5888 108.113)" fill="url(#paint52_linear_44_150)"/>
</g>
<g filter="url(#filter10_f_44_150)">
<ellipse cx="2.99654" cy="2.99995" rx="2.99654" ry="2.99995" transform="matrix(-0.241784 0.97033 0.970261 0.242059 80.4141 54.8759)" fill="url(#paint53_linear_44_150)"/>
<ellipse cx="2.99654" cy="2.99995" rx="2.99654" ry="2.99995" transform="matrix(-0.241784 0.97033 0.970261 0.242059 77.7576 65.5372)" fill="url(#paint54_linear_44_150)"/>
<ellipse cx="2.99654" cy="2.99995" rx="2.99654" ry="2.99995" transform="matrix(-0.241784 0.97033 0.970261 0.242059 75.101 76.1985)" fill="url(#paint55_linear_44_150)"/>
<ellipse cx="2.99654" cy="2.99995" rx="2.99654" ry="2.99995" transform="matrix(-0.241784 0.97033 0.970261 0.242059 72.4445 86.8599)" fill="url(#paint56_linear_44_150)"/>
<ellipse cx="2.99654" cy="2.99995" rx="2.99654" ry="2.99995" transform="matrix(-0.241784 0.97033 0.970261 0.242059 69.7879 97.5211)" fill="url(#paint57_linear_44_150)"/>
<ellipse cx="2.99654" cy="2.99995" rx="2.99654" ry="2.99995" transform="matrix(-0.241784 0.97033 0.970261 0.242059 67.1313 108.182)" fill="url(#paint58_linear_44_150)"/>
</g>
<g filter="url(#filter11_f_44_150)">
<ellipse cx="2.99654" cy="2.99995" rx="2.99654" ry="2.99995" transform="matrix(-0.241784 0.97033 0.970261 0.242059 88.9566 54.9453)" fill="url(#paint59_linear_44_150)"/>
<ellipse cx="2.99654" cy="2.99995" rx="2.99654" ry="2.99995" transform="matrix(-0.241784 0.97033 0.970261 0.242059 86.3001 65.6067)" fill="url(#paint60_linear_44_150)"/>
<ellipse cx="2.99654" cy="2.99995" rx="2.99654" ry="2.99995" transform="matrix(-0.241784 0.97033 0.970261 0.242059 83.6435 76.2679)" fill="url(#paint61_linear_44_150)"/>
<ellipse cx="2.99654" cy="2.99995" rx="2.99654" ry="2.99995" transform="matrix(-0.241784 0.97033 0.970261 0.242059 80.9869 86.9293)" fill="url(#paint62_linear_44_150)"/>
<ellipse cx="2.99654" cy="2.99995" rx="2.99654" ry="2.99995" transform="matrix(-0.241784 0.97033 0.970261 0.242059 78.3304 97.5906)" fill="url(#paint63_linear_44_150)"/>
<ellipse cx="2.99654" cy="2.99995" rx="2.99654" ry="2.99995" transform="matrix(-0.241784 0.97033 0.970261 0.242059 75.6738 108.252)" fill="url(#paint64_linear_44_150)"/>
</g>
<g filter="url(#filter12_f_44_150)">
<ellipse cx="2.99654" cy="2.99995" rx="2.99654" ry="2.99995" transform="matrix(-0.241784 0.97033 0.970261 0.242059 97.4991 55.0148)" fill="url(#paint65_linear_44_150)"/>
<ellipse cx="2.99654" cy="2.99995" rx="2.99654" ry="2.99995" transform="matrix(-0.241784 0.97033 0.970261 0.242059 94.8426 65.6761)" fill="url(#paint66_linear_44_150)"/>
<ellipse cx="2.99654" cy="2.99995" rx="2.99654" ry="2.99995" transform="matrix(-0.241784 0.97033 0.970261 0.242059 92.186 76.3374)" fill="url(#paint67_linear_44_150)"/>
<ellipse cx="2.99654" cy="2.99995" rx="2.99654" ry="2.99995" transform="matrix(-0.241784 0.97033 0.970261 0.242059 89.5294 86.9988)" fill="url(#paint68_linear_44_150)"/>
<ellipse cx="2.99654" cy="2.99995" rx="2.99654" ry="2.99995" transform="matrix(-0.241784 0.97033 0.970261 0.242059 86.8729 97.66)" fill="url(#paint69_linear_44_150)"/>
<ellipse cx="2.99654" cy="2.99995" rx="2.99654" ry="2.99995" transform="matrix(-0.241784 0.97033 0.970261 0.242059 84.2163 108.321)" fill="url(#paint70_linear_44_150)"/>
</g>
<g filter="url(#filter13_f_44_150)">
<ellipse cx="2.99654" cy="2.99995" rx="2.99654" ry="2.99995" transform="matrix(-0.241784 0.97033 0.970261 0.242059 106.042 55.0842)" fill="url(#paint71_linear_44_150)"/>
<ellipse cx="2.99654" cy="2.99995" rx="2.99654" ry="2.99995" transform="matrix(-0.241784 0.97033 0.970261 0.242059 103.385 65.7456)" fill="url(#paint72_linear_44_150)"/>
<ellipse cx="2.99654" cy="2.99995" rx="2.99654" ry="2.99995" transform="matrix(-0.241784 0.97033 0.970261 0.242059 100.728 76.4069)" fill="url(#paint73_linear_44_150)"/>
<ellipse cx="2.99654" cy="2.99995" rx="2.99654" ry="2.99995" transform="matrix(-0.241784 0.97033 0.970261 0.242059 98.0719 87.0682)" fill="url(#paint74_linear_44_150)"/>
<ellipse cx="2.99654" cy="2.99995" rx="2.99654" ry="2.99995" transform="matrix(-0.241784 0.97033 0.970261 0.242059 95.4153 97.7295)" fill="url(#paint75_linear_44_150)"/>
<ellipse cx="2.99654" cy="2.99995" rx="2.99654" ry="2.99995" transform="matrix(-0.241784 0.97033 0.970261 0.242059 92.7588 108.391)" fill="url(#paint76_linear_44_150)"/>
</g>
<g filter="url(#filter14_f_44_150)">
<ellipse cx="2.99654" cy="2.99995" rx="2.99654" ry="2.99995" transform="matrix(-0.241784 0.97033 0.970261 0.242059 114.584 55.1538)" fill="url(#paint77_linear_44_150)"/>
<ellipse cx="2.99654" cy="2.99995" rx="2.99654" ry="2.99995" transform="matrix(-0.241784 0.97033 0.970261 0.242059 111.928 65.8152)" fill="url(#paint78_linear_44_150)"/>
<ellipse cx="2.99654" cy="2.99995" rx="2.99654" ry="2.99995" transform="matrix(-0.241784 0.97033 0.970261 0.242059 109.271 76.4764)" fill="url(#paint79_linear_44_150)"/>
<ellipse cx="2.99654" cy="2.99995" rx="2.99654" ry="2.99995" transform="matrix(-0.241784 0.97033 0.970261 0.242059 106.614 87.1378)" fill="url(#paint80_linear_44_150)"/>
<ellipse cx="2.99654" cy="2.99995" rx="2.99654" ry="2.99995" transform="matrix(-0.241784 0.97033 0.970261 0.242059 103.958 97.7991)" fill="url(#paint81_linear_44_150)"/>
<ellipse cx="2.99654" cy="2.99995" rx="2.99654" ry="2.99995" transform="matrix(-0.241784 0.97033 0.970261 0.242059 101.301 108.46)" fill="url(#paint82_linear_44_150)"/>
</g>
<defs>
<filter id="filter0_f_44_150" x="-20.1076" y="53.8171" width="21.2833" height="61.302" filterUnits="userSpaceOnUse" color-interpolation-filters="sRGB">
<feFlood flood-opacity="0" result="BackgroundImageFix"/>
<feBlend mode="normal" in="SourceGraphic" in2="BackgroundImageFix" result="shape"/>
<feGaussianBlur stdDeviation="0.5" result="effect1_foregroundBlur_44_150"/>
</filter>
<filter id="filter1_f_44_150" x="-11.5651" y="53.8866" width="21.2833" height="61.302" filterUnits="userSpaceOnUse" color-interpolation-filters="sRGB">
<feFlood flood-opacity="0" result="BackgroundImageFix"/>
<feBlend mode="normal" in="SourceGraphic" in2="BackgroundImageFix" result="shape"/>
<feGaussianBlur stdDeviation="0.5" result="effect1_foregroundBlur_44_150"/>
</filter>
<filter id="filter2_f_44_150" x="-3.02263" y="53.9561" width="21.2833" height="61.302" filterUnits="userSpaceOnUse" color-interpolation-filters="sRGB">
<feFlood flood-opacity="0" result="BackgroundImageFix"/>
<feBlend mode="normal" in="SourceGraphic" in2="BackgroundImageFix" result="shape"/>
<feGaussianBlur stdDeviation="0.5" result="effect1_foregroundBlur_44_150"/>
</filter>
<filter id="filter3_f_44_150" x="5.51987" y="54.0256" width="21.2833" height="61.302" filterUnits="userSpaceOnUse" color-interpolation-filters="sRGB">
<feFlood flood-opacity="0" result="BackgroundImageFix"/>
<feBlend mode="normal" in="SourceGraphic" in2="BackgroundImageFix" result="shape"/>
<feGaussianBlur stdDeviation="0.5" result="effect1_foregroundBlur_44_150"/>
</filter>
<filter id="filter4_f_44_150" x="14.0623" y="54.0951" width="21.2833" height="61.302" filterUnits="userSpaceOnUse" color-interpolation-filters="sRGB">
<feFlood flood-opacity="0" result="BackgroundImageFix"/>
<feBlend mode="normal" in="SourceGraphic" in2="BackgroundImageFix" result="shape"/>
<feGaussianBlur stdDeviation="0.5" result="effect1_foregroundBlur_44_150"/>
</filter>
<filter id="filter5_f_44_150" x="22.6543" y="54.0356" width="21.2833" height="61.302" filterUnits="userSpaceOnUse" color-interpolation-filters="sRGB">
<feFlood flood-opacity="0" result="BackgroundImageFix"/>
<feBlend mode="normal" in="SourceGraphic" in2="BackgroundImageFix" result="shape"/>
<feGaussianBlur stdDeviation="0.5" result="effect1_foregroundBlur_44_150"/>
</filter>
<filter id="filter6_f_44_150" x="31.1473" y="54.234" width="21.2833" height="61.302" filterUnits="userSpaceOnUse" color-interpolation-filters="sRGB">
<feFlood flood-opacity="0" result="BackgroundImageFix"/>
<feBlend mode="normal" in="SourceGraphic" in2="BackgroundImageFix" result="shape"/>
<feGaussianBlur stdDeviation="0.5" result="effect1_foregroundBlur_44_150"/>
</filter>
<filter id="filter7_f_44_150" x="39.6898" y="54.3036" width="21.2833" height="61.302" filterUnits="userSpaceOnUse" color-interpolation-filters="sRGB">
<feFlood flood-opacity="0" result="BackgroundImageFix"/>
<feBlend mode="normal" in="SourceGraphic" in2="BackgroundImageFix" result="shape"/>
<feGaussianBlur stdDeviation="0.5" result="effect1_foregroundBlur_44_150"/>
</filter>
<filter id="filter8_f_44_150" x="48.2323" y="54.373" width="21.2833" height="61.302" filterUnits="userSpaceOnUse" color-interpolation-filters="sRGB">
<feFlood flood-opacity="0" result="BackgroundImageFix"/>
<feBlend mode="normal" in="SourceGraphic" in2="BackgroundImageFix" result="shape"/>
<feGaussianBlur stdDeviation="0.5" result="effect1_foregroundBlur_44_150"/>
</filter>
<filter id="filter9_f_44_150" x="56.7748" y="54.4425" width="21.2833" height="61.302" filterUnits="userSpaceOnUse" color-interpolation-filters="sRGB">
<feFlood flood-opacity="0" result="BackgroundImageFix"/>
<feBlend mode="normal" in="SourceGraphic" in2="BackgroundImageFix" result="shape"/>
<feGaussianBlur stdDeviation="0.5" result="effect1_foregroundBlur_44_150"/>
</filter>
<filter id="filter10_f_44_150" x="65.3173" y="54.512" width="21.2833" height="61.302" filterUnits="userSpaceOnUse" color-interpolation-filters="sRGB">
<feFlood flood-opacity="0" result="BackgroundImageFix"/>
<feBlend mode="normal" in="SourceGraphic" in2="BackgroundImageFix" result="shape"/>
<feGaussianBlur stdDeviation="0.5" result="effect1_foregroundBlur_44_150"/>
</filter>
<filter id="filter11_f_44_150" x="73.8598" y="54.5814" width="21.2833" height="61.302" filterUnits="userSpaceOnUse" color-interpolation-filters="sRGB">
<feFlood flood-opacity="0" result="BackgroundImageFix"/>
<feBlend mode="normal" in="SourceGraphic" in2="BackgroundImageFix" result="shape"/>
<feGaussianBlur stdDeviation="0.5" result="effect1_foregroundBlur_44_150"/>
</filter>
<filter id="filter12_f_44_150" x="82.4023" y="54.6509" width="21.2833" height="61.302" filterUnits="userSpaceOnUse" color-interpolation-filters="sRGB">
<feFlood flood-opacity="0" result="BackgroundImageFix"/>
<feBlend mode="normal" in="SourceGraphic" in2="BackgroundImageFix" result="shape"/>
<feGaussianBlur stdDeviation="0.5" result="effect1_foregroundBlur_44_150"/>
</filter>
<filter id="filter13_f_44_150" x="90.9447" y="54.7203" width="21.2833" height="61.302" filterUnits="userSpaceOnUse" color-interpolation-filters="sRGB">
<feFlood flood-opacity="0" result="BackgroundImageFix"/>
<feBlend mode="normal" in="SourceGraphic" in2="BackgroundImageFix" result="shape"/>
<feGaussianBlur stdDeviation="0.5" result="effect1_foregroundBlur_44_150"/>
</filter>
<filter id="filter14_f_44_150" x="99.4872" y="54.7899" width="21.2833" height="61.302" filterUnits="userSpaceOnUse" color-interpolation-filters="sRGB">
<feFlood flood-opacity="0" result="BackgroundImageFix"/>
<feBlend mode="normal" in="SourceGraphic" in2="BackgroundImageFix" result="shape"/>
<feGaussianBlur stdDeviation="0.5" result="effect1_foregroundBlur_44_150"/>
</filter>
<linearGradient id="paint0_linear_44_150" x1="0" y1="2.99995" x2="5.99308" y2="2.99995" gradientUnits="userSpaceOnUse">
<stop stop-color="#7E8C9C"/>
<stop offset="1" stop-color="#E5E5E5"/>
</linearGradient>
<linearGradient id="paint1_linear_44_150" x1="0" y1="2.99995" x2="5.99308" y2="2.99995" gradientUnits="userSpaceOnUse">
<stop stop-color="#7E8C9C"/>
<stop offset="1" stop-color="#E5E5E5"/>
</linearGradient>
<linearGradient id="paint2_linear_44_150" x1="0" y1="2.99995" x2="5.99308" y2="2.99995" gradientUnits="userSpaceOnUse">
<stop stop-color="#7E8C9C"/>
<stop offset="1" stop-color="#E5E5E5"/>
</linearGradient>
<linearGradient id="paint3_linear_44_150" x1="0" y1="2.99995" x2="5.99308" y2="2.99995" gradientUnits="userSpaceOnUse">
<stop stop-color="#7E8C9C"/>
<stop offset="1" stop-color="#E5E5E5"/>
</linearGradient>
<linearGradient id="paint4_linear_44_150" x1="0" y1="2.99995" x2="5.99308" y2="2.99995" gradientUnits="userSpaceOnUse">
<stop stop-color="#7E8C9C"/>
<stop offset="1" stop-color="#E5E5E5"/>
</linearGradient>
<linearGradient id="paint5_linear_44_150" x1="0" y1="2.99995" x2="5.99308" y2="2.99995" gradientUnits="userSpaceOnUse">
<stop stop-color="#7E8C9C"/>
<stop offset="1" stop-color="#E5E5E5"/>
</linearGradient>
<linearGradient id="paint6_linear_44_150" x1="0" y1="2.99995" x2="5.99308" y2="2.99995" gradientUnits="userSpaceOnUse">
<stop stop-color="#7E8C9C"/>
<stop offset="1" stop-color="#E5E5E5"/>
</linearGradient>
<linearGradient id="paint7_linear_44_150" x1="0" y1="2.99995" x2="5.99308" y2="2.99995" gradientUnits="userSpaceOnUse">
<stop stop-color="#7E8C9C"/>
<stop offset="1" stop-color="#E5E5E5"/>
</linearGradient>
<linearGradient id="paint8_linear_44_150" x1="0" y1="2.99995" x2="5.99308" y2="2.99995" gradientUnits="userSpaceOnUse">
<stop stop-color="#7E8C9C"/>
<stop offset="1" stop-color="#E5E5E5"/>
</linearGradient>
<linearGradient id="paint9_linear_44_150" x1="0" y1="2.99995" x2="5.99308" y2="2.99995" gradientUnits="userSpaceOnUse">
<stop stop-color="#7E8C9C"/>
<stop offset="1" stop-color="#E5E5E5"/>
</linearGradient>
<linearGradient id="paint10_linear_44_150" x1="0" y1="2.99995" x2="5.99308" y2="2.99995" gradientUnits="userSpaceOnUse">
<stop stop-color="#7E8C9C"/>
<stop offset="1" stop-color="#E5E5E5"/>
</linearGradient>
<linearGradient id="paint11_linear_44_150" x1="0" y1="2.99995" x2="5.99308" y2="2.99995" gradientUnits="userSpaceOnUse">
<stop stop-color="#7E8C9C"/>
<stop offset="1" stop-color="#E5E5E5"/>
</linearGradient>
<linearGradient id="paint12_linear_44_150" x1="0" y1="2.99995" x2="5.99308" y2="2.99995" gradientUnits="userSpaceOnUse">
<stop stop-color="#7E8C9C"/>
<stop offset="1" stop-color="#E5E5E5"/>
</linearGradient>
<linearGradient id="paint13_linear_44_150" x1="0" y1="2.99995" x2="5.99308" y2="2.99995" gradientUnits="userSpaceOnUse">
<stop stop-color="#7E8C9C"/>
<stop offset="1" stop-color="#E5E5E5"/>
</linearGradient>
<linearGradient id="paint14_linear_44_150" x1="0" y1="2.99995" x2="5.99308" y2="2.99995" gradientUnits="userSpaceOnUse">
<stop stop-color="#7E8C9C"/>
<stop offset="1" stop-color="#E5E5E5"/>
</linearGradient>
<linearGradient id="paint15_linear_44_150" x1="0" y1="2.99995" x2="5.99308" y2="2.99995" gradientUnits="userSpaceOnUse">
<stop stop-color="#7E8C9C"/>
<stop offset="1" stop-color="#E5E5E5"/>
</linearGradient>
<linearGradient id="paint16_linear_44_150" x1="0" y1="2.99995" x2="5.99308" y2="2.99995" gradientUnits="userSpaceOnUse">
<stop stop-color="#7E8C9C"/>
<stop offset="1" stop-color="#E5E5E5"/>
</linearGradient>
<linearGradient id="paint17_linear_44_150" x1="0" y1="2.99995" x2="5.99308" y2="2.99995" gradientUnits="userSpaceOnUse">
<stop stop-color="#7E8C9C"/>
<stop offset="1" stop-color="#E5E5E5"/>
</linearGradient>
<linearGradient id="paint18_linear_44_150" x1="0" y1="2.99995" x2="5.99308" y2="2.99995" gradientUnits="userSpaceOnUse">
<stop stop-color="#7E8C9C"/>
<stop offset="1" stop-color="#E5E5E5"/>
</linearGradient>
<linearGradient id="paint19_linear_44_150" x1="0" y1="2.99995" x2="5.99308" y2="2.99995" gradientUnits="userSpaceOnUse">
<stop stop-color="#7E8C9C"/>
<stop offset="1" stop-color="#E5E5E5"/>
</linearGradient>
<linearGradient id="paint20_linear_44_150" x1="0" y1="2.99995" x2="5.99308" y2="2.99995" gradientUnits="userSpaceOnUse">
<stop stop-color="#7E8C9C"/>
<stop offset="1" stop-color="#E5E5E5"/>
</linearGradient>
<linearGradient id="paint21_linear_44_150" x1="0" y1="2.99995" x2="5.99308" y2="2.99995" gradientUnits="userSpaceOnUse">
<stop stop-color="#7E8C9C"/>
<stop offset="1" stop-color="#E5E5E5"/>
</linearGradient>
<linearGradient id="paint22_linear_44_150" x1="0" y1="2.99995" x2="5.99308" y2="2.99995" gradientUnits="userSpaceOnUse">
<stop stop-color="#7E8C9C"/>
<stop offset="1" stop-color="#E5E5E5"/>
</linearGradient>
<linearGradient id="paint23_linear_44_150" x1="0" y1="2.99995" x2="5.99308" y2="2.99995" gradientUnits="userSpaceOnUse">
<stop stop-color="#7E8C9C"/>
<stop offset="1" stop-color="#E5E5E5"/>
</linearGradient>
<linearGradient id="paint24_linear_44_150" x1="0" y1="2.99995" x2="5.99308" y2="2.99995" gradientUnits="userSpaceOnUse">
<stop stop-color="#7E8C9C"/>
<stop offset="1" stop-color="#E5E5E5"/>
</linearGradient>
<linearGradient id="paint25_linear_44_150" x1="0" y1="2.99995" x2="5.99308" y2="2.99995" gradientUnits="userSpaceOnUse">
<stop stop-color="#7E8C9C"/>
<stop offset="1" stop-color="#E5E5E5"/>
</linearGradient>
<linearGradient id="paint26_linear_44_150" x1="0" y1="2.99995" x2="5.99308" y2="2.99995" gradientUnits="userSpaceOnUse">
<stop stop-color="#7E8C9C"/>
<stop offset="1" stop-color="#E5E5E5"/>
</linearGradient>
<linearGradient id="paint27_linear_44_150" x1="0" y1="2.99995" x2="5.99308" y2="2.99995" gradientUnits="userSpaceOnUse">
<stop stop-color="#7E8C9C"/>
<stop offset="1" stop-color="#E5E5E5"/>
</linearGradient>
<linearGradient id="paint28_linear_44_150" x1="0" y1="2.99995" x2="5.99308" y2="2.99995" gradientUnits="userSpaceOnUse">
<stop stop-color="#7E8C9C"/>
<stop offset="1" stop-color="#E5E5E5"/>
</linearGradient>
<linearGradient id="paint29_linear_44_150" x1="0" y1="2.99995" x2="5.99308" y2="2.99995" gradientUnits="userSpaceOnUse">
<stop stop-color="#7E8C9C"/>
<stop offset="1" stop-color="#E5E5E5"/>
</linearGradient>
<linearGradient id="paint30_linear_44_150" x1="0" y1="2.99995" x2="5.99308" y2="2.99995" gradientUnits="userSpaceOnUse">
<stop stop-color="#7E8C9C"/>
<stop offset="1" stop-color="#E5E5E5"/>
</linearGradient>
<linearGradient id="paint31_linear_44_150" x1="0" y1="2.99995" x2="5.99308" y2="2.99995" gradientUnits="userSpaceOnUse">
<stop stop-color="#7E8C9C"/>
<stop offset="1" stop-color="#E5E5E5"/>
</linearGradient>
<linearGradient id="paint32_linear_44_150" x1="0" y1="2.99995" x2="5.99308" y2="2.99995" gradientUnits="userSpaceOnUse">
<stop stop-color="#7E8C9C"/>
<stop offset="1" stop-color="#E5E5E5"/>
</linearGradient>
<linearGradient id="paint33_linear_44_150" x1="0" y1="2.99995" x2="5.99308" y2="2.99995" gradientUnits="userSpaceOnUse">
<stop stop-color="#7E8C9C"/>
<stop offset="1" stop-color="#E5E5E5"/>
</linearGradient>
<linearGradient id="paint34_linear_44_150" x1="0" y1="2.99995" x2="5.99308" y2="2.99995" gradientUnits="userSpaceOnUse">
<stop stop-color="#7E8C9C"/>
<stop offset="1" stop-color="#E5E5E5"/>
</linearGradient>
<linearGradient id="paint35_linear_44_150" x1="0" y1="2.99995" x2="5.99308" y2="2.99995" gradientUnits="userSpaceOnUse">
<stop stop-color="#7E8C9C"/>
<stop offset="1" stop-color="#E5E5E5"/>
</linearGradient>
<linearGradient id="paint36_linear_44_150" x1="0" y1="2.99995" x2="5.99308" y2="2.99995" gradientUnits="userSpaceOnUse">
<stop stop-color="#7E8C9C"/>
<stop offset="1" stop-color="#E5E5E5"/>
</linearGradient>
<linearGradient id="paint37_linear_44_150" x1="0" y1="2.99995" x2="5.99308" y2="2.99995" gradientUnits="userSpaceOnUse">
<stop stop-color="#7E8C9C"/>
<stop offset="1" stop-color="#E5E5E5"/>
</linearGradient>
<linearGradient id="paint38_linear_44_150" x1="0" y1="2.99995" x2="5.99308" y2="2.99995" gradientUnits="userSpaceOnUse">
<stop stop-color="#7E8C9C"/>
<stop offset="1" stop-color="#E5E5E5"/>
</linearGradient>
<linearGradient id="paint39_linear_44_150" x1="0" y1="2.99995" x2="5.99308" y2="2.99995" gradientUnits="userSpaceOnUse">
<stop stop-color="#7E8C9C"/>
<stop offset="1" stop-color="#E5E5E5"/>
</linearGradient>
<linearGradient id="paint40_linear_44_150" x1="0" y1="2.99995" x2="5.99308" y2="2.99995" gradientUnits="userSpaceOnUse">
<stop stop-color="#7E8C9C"/>
<stop offset="1" stop-color="#E5E5E5"/>
</linearGradient>
<linearGradient id="paint41_linear_44_150" x1="0" y1="2.99995" x2="5.99308" y2="2.99995" gradientUnits="userSpaceOnUse">
<stop stop-color="#7E8C9C"/>
<stop offset="1" stop-color="#E5E5E5"/>
</linearGradient>
<linearGradient id="paint42_linear_44_150" x1="0" y1="2.99995" x2="5.99308" y2="2.99995" gradientUnits="userSpaceOnUse">
<stop stop-color="#7E8C9C"/>
<stop offset="1" stop-color="#E5E5E5"/>
</linearGradient>
<linearGradient id="paint43_linear_44_150" x1="0" y1="2.99995" x2="5.99308" y2="2.99995" gradientUnits="userSpaceOnUse">
<stop stop-color="#7E8C9C"/>
<stop offset="1" stop-color="#E5E5E5"/>
</linearGradient>
<linearGradient id="paint44_linear_44_150" x1="0" y1="2.99995" x2="5.99308" y2="2.99995" gradientUnits="userSpaceOnUse">
<stop stop-color="#7E8C9C"/>
<stop offset="1" stop-color="#E5E5E5"/>
</linearGradient>
<linearGradient id="paint45_linear_44_150" x1="0" y1="2.99995" x2="5.99308" y2="2.99995" gradientUnits="userSpaceOnUse">
<stop stop-color="#7E8C9C"/>
<stop offset="1" stop-color="#E5E5E5"/>
</linearGradient>
<linearGradient id="paint46_linear_44_150" x1="0" y1="2.99995" x2="5.99308" y2="2.99995" gradientUnits="userSpaceOnUse">
<stop stop-color="#7E8C9C"/>
<stop offset="1" stop-color="#E5E5E5"/>
</linearGradient>
<linearGradient id="paint47_linear_44_150" x1="0" y1="2.99995" x2="5.99308" y2="2.99995" gradientUnits="userSpaceOnUse">
<stop stop-color="#7E8C9C"/>
<stop offset="1" stop-color="#E5E5E5"/>
</linearGradient>
<linearGradient id="paint48_linear_44_150" x1="0" y1="2.99995" x2="5.99308" y2="2.99995" gradientUnits="userSpaceOnUse">
<stop stop-color="#7E8C9C"/>
<stop offset="1" stop-color="#E5E5E5"/>
</linearGradient>
<linearGradient id="paint49_linear_44_150" x1="0" y1="2.99995" x2="5.99308" y2="2.99995" gradientUnits="userSpaceOnUse">
<stop stop-color="#7E8C9C"/>
<stop offset="1" stop-color="#E5E5E5"/>
</linearGradient>
<linearGradient id="paint50_linear_44_150" x1="0" y1="2.99995" x2="5.99308" y2="2.99995" gradientUnits="userSpaceOnUse">
<stop stop-color="#7E8C9C"/>
<stop offset="1" stop-color="#E5E5E5"/>
</linearGradient>
<linearGradient id="paint51_linear_44_150" x1="0" y1="2.99995" x2="5.99308" y2="2.99995" gradientUnits="userSpaceOnUse">
<stop stop-color="#7E8C9C"/>
<stop offset="1" stop-color="#E5E5E5"/>
</linearGradient>
<linearGradient id="paint52_linear_44_150" x1="0" y1="2.99995" x2="5.99308" y2="2.99995" gradientUnits="userSpaceOnUse">
<stop stop-color="#7E8C9C"/>
<stop offset="1" stop-color="#E5E5E5"/>
</linearGradient>
<linearGradient id="paint53_linear_44_150" x1="0" y1="2.99995" x2="5.99308" y2="2.99995" gradientUnits="userSpaceOnUse">
<stop stop-color="#7E8C9C"/>
<stop offset="1" stop-color="#E5E5E5"/>
</linearGradient>
<linearGradient id="paint54_linear_44_150" x1="0" y1="2.99995" x2="5.99308" y2="2.99995" gradientUnits="userSpaceOnUse">
<stop stop-color="#7E8C9C"/>
<stop offset="1" stop-color="#E5E5E5"/>
</linearGradient>
<linearGradient id="paint55_linear_44_150" x1="0" y1="2.99995" x2="5.99308" y2="2.99995" gradientUnits="userSpaceOnUse">
<stop stop-color="#7E8C9C"/>
<stop offset="1" stop-color="#E5E5E5"/>
</linearGradient>
<linearGradient id="paint56_linear_44_150" x1="0" y1="2.99995" x2="5.99308" y2="2.99995" gradientUnits="userSpaceOnUse">
<stop stop-color="#7E8C9C"/>
<stop offset="1" stop-color="#E5E5E5"/>
</linearGradient>
<linearGradient id="paint57_linear_44_150" x1="0" y1="2.99995" x2="5.99308" y2="2.99995" gradientUnits="userSpaceOnUse">
<stop stop-color="#7E8C9C"/>
<stop offset="1" stop-color="#E5E5E5"/>
</linearGradient>
<linearGradient id="paint58_linear_44_150" x1="0" y1="2.99995" x2="5.99308" y2="2.99995" gradientUnits="userSpaceOnUse">
<stop stop-color="#7E8C9C"/>
<stop offset="1" stop-color="#E5E5E5"/>
</linearGradient>
<linearGradient id="paint59_linear_44_150" x1="0" y1="2.99995" x2="5.99308" y2="2.99995" gradientUnits="userSpaceOnUse">
<stop stop-color="#7E8C9C"/>
<stop offset="1" stop-color="#E5E5E5"/>
</linearGradient>
<linearGradient id="paint60_linear_44_150" x1="0" y1="2.99995" x2="5.99308" y2="2.99995" gradientUnits="userSpaceOnUse">
<stop stop-color="#7E8C9C"/>
<stop offset="1" stop-color="#E5E5E5"/>
</linearGradient>
<linearGradient id="paint61_linear_44_150" x1="0" y1="2.99995" x2="5.99308" y2="2.99995" gradientUnits="userSpaceOnUse">
<stop stop-color="#7E8C9C"/>
<stop offset="1" stop-color="#E5E5E5"/>
</linearGradient>
<linearGradient id="paint62_linear_44_150" x1="0" y1="2.99995" x2="5.99308" y2="2.99995" gradientUnits="userSpaceOnUse">
<stop stop-color="#7E8C9C"/>
<stop offset="1" stop-color="#E5E5E5"/>
</linearGradient>
<linearGradient id="paint63_linear_44_150" x1="0" y1="2.99995" x2="5.99308" y2="2.99995" gradientUnits="userSpaceOnUse">
<stop stop-color="#7E8C9C"/>
<stop offset="1" stop-color="#E5E5E5"/>
</linearGradient>
<linearGradient id="paint64_linear_44_150" x1="0" y1="2.99995" x2="5.99308" y2="2.99995" gradientUnits="userSpaceOnUse">
<stop stop-color="#7E8C9C"/>
<stop offset="1" stop-color="#E5E5E5"/>
</linearGradient>
<linearGradient id="paint65_linear_44_150" x1="0" y1="2.99995" x2="5.99308" y2="2.99995" gradientUnits="userSpaceOnUse">
<stop stop-color="#7E8C9C"/>
<stop offset="1" stop-color="#E5E5E5"/>
</linearGradient>
<linearGradient id="paint66_linear_44_150" x1="0" y1="2.99995" x2="5.99308" y2="2.99995" gradientUnits="userSpaceOnUse">
<stop stop-color="#7E8C9C"/>
<stop offset="1" stop-color="#E5E5E5"/>
</linearGradient>
<linearGradient id="paint67_linear_44_150" x1="0" y1="2.99995" x2="5.99308" y2="2.99995" gradientUnits="userSpaceOnUse">
<stop stop-color="#7E8C9C"/>
<stop offset="1" stop-color="#E5E5E5"/>
</linearGradient>
<linearGradient id="paint68_linear_44_150" x1="0" y1="2.99995" x2="5.99308" y2="2.99995" gradientUnits="userSpaceOnUse">
<stop stop-color="#7E8C9C"/>
<stop offset="1" stop-color="#E5E5E5"/>
</linearGradient>
<linearGradient id="paint69_linear_44_150" x1="0" y1="2.99995" x2="5.99308" y2="2.99995" gradientUnits="userSpaceOnUse">
<stop stop-color="#7E8C9C"/>
<stop offset="1" stop-color="#E5E5E5"/>
</linearGradient>
<linearGradient id="paint70_linear_44_150" x1="0" y1="2.99995" x2="5.99308" y2="2.99995" gradientUnits="userSpaceOnUse">
<stop stop-color="#7E8C9C"/>
<stop offset="1" stop-color="#E5E5E5"/>
</linearGradient>
<linearGradient id="paint71_linear_44_150" x1="0" y1="2.99995" x2="5.99308" y2="2.99995" gradientUnits="userSpaceOnUse">
<stop stop-color="#7E8C9C"/>
<stop offset="1" stop-color="#E5E5E5"/>
</linearGradient>
<linearGradient id="paint72_linear_44_150" x1="0" y1="2.99995" x2="5.99308" y2="2.99995" gradientUnits="userSpaceOnUse">
<stop stop-color="#7E8C9C"/>
<stop offset="1" stop-color="#E5E5E5"/>
</linearGradient>
<linearGradient id="paint73_linear_44_150" x1="0" y1="2.99995" x2="5.99308" y2="2.99995" gradientUnits="userSpaceOnUse">
<stop stop-color="#7E8C9C"/>
<stop offset="1" stop-color="#E5E5E5"/>
</linearGradient>
<linearGradient id="paint74_linear_44_150" x1="0" y1="2.99995" x2="5.99308" y2="2.99995" gradientUnits="userSpaceOnUse">
<stop stop-color="#7E8C9C"/>
<stop offset="1" stop-color="#E5E5E5"/>
</linearGradient>
<linearGradient id="paint75_linear_44_150" x1="0" y1="2.99995" x2="5.99308" y2="2.99995" gradientUnits="userSpaceOnUse">
<stop stop-color="#7E8C9C"/>
<stop offset="1" stop-color="#E5E5E5"/>
</linearGradient>
<linearGradient id="paint76_linear_44_150" x1="0" y1="2.99995" x2="5.99308" y2="2.99995" gradientUnits="userSpaceOnUse">
<stop stop-color="#7E8C9C"/>
<stop offset="1" stop-color="#E5E5E5"/>
</linearGradient>
<linearGradient id="paint77_linear_44_150" x1="0" y1="2.99995" x2="5.99308" y2="2.99995" gradientUnits="userSpaceOnUse">
<stop stop-color="#7E8C9C"/>
<stop offset="1" stop-color="#E5E5E5"/>
</linearGradient>
<linearGradient id="paint78_linear_44_150" x1="0" y1="2.99995" x2="5.99308" y2="2.99995" gradientUnits="userSpaceOnUse">
<stop stop-color="#7E8C9C"/>
<stop offset="1" stop-color="#E5E5E5"/>
</linearGradient>
<linearGradient id="paint79_linear_44_150" x1="0" y1="2.99995" x2="5.99308" y2="2.99995" gradientUnits="userSpaceOnUse">
<stop stop-color="#7E8C9C"/>
<stop offset="1" stop-color="#E5E5E5"/>
</linearGradient>
<linearGradient id="paint80_linear_44_150" x1="0" y1="2.99995" x2="5.99308" y2="2.99995" gradientUnits="userSpaceOnUse">
<stop stop-color="#7E8C9C"/>
<stop offset="1" stop-color="#E5E5E5"/>
</linearGradient>
<linearGradient id="paint81_linear_44_150" x1="0" y1="2.99995" x2="5.99308" y2="2.99995" gradientUnits="userSpaceOnUse">
<stop stop-color="#7E8C9C"/>
<stop offset="1" stop-color="#E5E5E5"/>
</linearGradient>
<linearGradient id="paint82_linear_44_150" x1="0" y1="2.99995" x2="5.99308" y2="2.99995" gradientUnits="userSpaceOnUse">
<stop stop-color="#7E8C9C"/>
<stop offset="1" stop-color="#E5E5E5"/>
</linearGradient>
</defs>
</svg>
